<svg xmlns="http://www.w3.org/2000/svg" xmlns:xlink="http://www.w3.org/1999/xlink" viewBox="0 0 177.33 182.13">
  <defs>
    <style>
      .cls-1 {
        fill: #00b6ef;
      }

      .cls-2 {
        fill: #0d1035;
        opacity: 0.35;
      }

      .cls-3 {
        fill: url(#linear-gradient);
      }

      .cls-4 {
        fill: url(#linear-gradient-2);
      }
    </style>
    <linearGradient id="linear-gradient" x1="59.05" y1="24.02" x2="193.15" y2="158.12" gradientUnits="userSpaceOnUse">
      <stop offset="0" stop-color="#eb0d8c" />
      <stop offset="0.17" stop-color="#d72790" />
      <stop offset="0.36" stop-color="#c24699" />
      <stop offset="0.38" stop-color="#be469a" />
      <stop offset="0.53" stop-color="#a3499b" />
      <stop offset="0.68" stop-color="#90499c" />
      <stop offset="0.83" stop-color="#854b9d" />
      <stop offset="1" stop-color="#814b9d" />
    </linearGradient>
    <linearGradient id="linear-gradient-2" x1="75.21" y1="17.31" x2="75.99" y2="18.09" xlink:href="#linear-gradient" />
  </defs>
  <g id="Layer_2" data-name="Layer 2">
    <g id="Layer_1-2" data-name="Layer 1">
      <path class="cls-1" d="M152.8,177.35,141,154.12H74.19a14,14,0,0,0,0,28h89.06C163.29,180.35,155.46,180.39,152.8,177.35Z" />
      <polygon class="cls-2" points="152.8 177.35 141.02 154.13 129.75 154.13 152.81 177.37 152.8 177.35" />
      <path class="cls-1" d="M88.83,46.11,75.27,17.29A14,14,0,0,1,76.48,7.5l-.21.38L1.41,162A14,14,0,1,0,26.6,174.24L84.34,55.35l4.49-9.24Z" />
      <polygon class="cls-2" points="88.83 46.11 75.26 17.27 75.31 17.51 84.34 55.35 88.83 46.11 88.83 46.11" />
      <path class="cls-3" d="M163.34,182.13a14,14,0,0,1-12.62-7.91L76.26,20.09A14,14,0,0,1,101.47,7.91L175.93,162a14,14,0,0,1-12.59,20.09Z" />
      <path class="cls-4" d="M75.31,17.51a2.07,2.07,0,0,0,0-.22v0Z" />
    </g>
  </g>
</svg>